<svg width="512" height="512" viewBox="0 0 512 512" fill="none" xmlns="http://www.w3.org/2000/svg">
  <rect width="512" height="512" rx="120" fill="#11161D"/>
  <path d="M127 322.5C127 251.4 184.4 194 255.5 194C326.6 194 384 251.4 384 322.5C384 350.5 375.1 376.5 360 397.8H151C135.9 376.5 127 350.5 127 322.5Z" fill="#F4EFE6"/>
  <path d="M255.5 244C298.3 244 333 278.7 333 321.5C333 356 310.7 386 279.4 396.3H231.6C200.3 386 178 356 178 321.5C178 278.7 212.7 244 255.5 244Z" fill="#1EA65A"/>
  <path d="M255.5 278C269.1 278 280 288.9 280 302.5C280 316.1 269.1 327 255.5 327C241.9 327 231 316.1 231 302.5C231 288.9 241.9 278 255.5 278Z" fill="#FFFFFF"/>
  <path d="M255.5 104C255.5 104 315 176 315 226.5C315 259.4 288.4 286 255.5 286C222.6 286 196 259.4 196 226.5C196 176 255.5 104 255.5 104Z" fill="#D48B14"/>
  <path d="M255.5 150C245.7 150 238 157.7 238 167.5C238 177.3 245.7 185 255.5 185C265.3 185 273 177.3 273 167.5C273 157.7 265.3 150 255.5 150Z" fill="#FFFFFF"/>
</svg>

